Patient4_TMGait_0pt3_03_right_14_GRF.mot
version=1
nRows=78
nColumns=19
inDegrees=no
endheader
time	F1x	F1y	F1z	M1x	M1y	M1z	F2x	F2y	F2z	M2x	M2y	M2z	EC1x	EC1y	EC1z	EC2x	EC2y	EC2z
26.48	-12.2407	786.2566	54.0505	-263.0717	-54.5838	798.2499	-7.0584	7.0154	-2.9764	3.534	4.0739	4.497	-0.0592	0.0182	-0.0073	-0.0462	0.0165	0.9585
26.4981	-13.0062	797.1038	54.7915	-266.8044	-55.5318	807.3879	-4.84	5.1327	-1.9941	2.5452	2.7772	3.4575	-0.0592	0.0182	-0.0073	-0.0462	0.0165	0.9585
26.5163	-14.0368	809.0091	55.7115	-270.8343	-56.6709	817.0314	-2.8747	3.5029	-1.1547	1.6905	1.6495	2.5583	-0.0592	0.0182	-0.0073	-0.0462	0.0165	0.9585
26.5344	-15.1228	820.5496	56.7395	-274.6752	-57.8565	825.7887	-1.322	2.2425	-0.5137	1.0319	0.77448	1.8721	-0.0592	0.0182	-0.0073	-0.0462	0.0165	0.9585
26.5526	-16.0061	830.1241	57.7745	-277.7948	-58.9112	832.1284	-0.21044	1.3626	-0.072416	0.57511	0.16066	1.3976	-0.0592	0.0182	-0.0073	-0.0462	0.0165	0.9585
26.5707	-16.4592	836.256	58.7037	-279.7108	-59.6618	834.6587	0.50389	0.81028	0.19918	0.29212	-0.22481	1.0972	-0.0592	0.0182	-0.0073	-0.0462	0.0165	0.9585
26.5889	-16.3254	837.8735	59.4115	-280.081	-59.9587	832.3967	0.89684	0.50071	0.34033	0.13881	-0.43113	0.92359	-0.0592	0.0182	-0.0073	-0.0462	0.0165	0.9585
26.607	-15.5372	834.4903	59.7912	-278.7615	-59.6934	824.94	1.055	0.3334	0.38935	0.064439	-0.50765	0.81234	-0.0592	0.0182	-0.0073	-0.0462	0.0165	0.9585
26.6251	-14.095	826.2608	59.7644	-275.8233	-58.8068	812.5061	1.056	0.20387	0.38075	0.017149	-0.49767	0.68627	-0.0592	0.0182	-0.0073	-0.0462	0.0165	0.9585
26.6433	-12.0341	813.9667	59.2905	-271.5466	-57.2863	795.9094	0.95873	0.0051169	0.343	-0.052796	-0.43826	0.46139	-0.0592	0.0182	-0.0073	-0.0462	0.0165	0.9585
26.6614	-9.4025	798.9031	58.3718	-266.3797	-55.1622	776.4457	0.80871	-0.36753	0.29586	-0.1902	-0.35719	0.047328	-0.0592	0.0182	-0.0073	-0.0462	0.0165	0.9585
26.6796	-6.2452	782.6688	57.0628	-260.865	-52.5075	755.6825	0.64048	-1.0024	0.25533	-0.43227	-0.27619	-0.63564	-0.0592	0.0182	-0.0073	-0.0462	0.0165	0.9585
26.6977	-2.6097	766.888	55.4754	-255.5472	-49.4463	735.2067	0.48054	-1.9541	0.23583	-0.80227	-0.21495	-1.6355	-0.0592	0.0182	-0.0073	-0.0462	0.0165	0.9585
26.7159	1.42	752.9529	53.7685	-250.8874	-46.1562	716.3796	0.35462	-3.2268	0.24675	-1.3016	-0.19372	-2.9508	-0.0592	0.0182	-0.0073	-0.0462	0.0165	0.9585
26.734	5.7266	741.8352	52.128	-247.1996	-42.8504	700.1567	0.29257	-4.7401	0.29293	-1.8976	-0.23101	-4.505	-0.0592	0.0182	-0.0073	-0.0462	0.0165	0.9585
26.7521	10.1756	734.0082	50.7301	-244.6289	-39.7362	687.0217	0.33111	-6.2765	0.37728	-2.5046	-0.34386	-6.086	-0.0592	0.0182	-0.0073	-0.0462	0.0165	0.9585
26.7703	14.6133	729.4178	49.6963	-243.1442	-36.9754	676.9698	0.51614	-7.4211	0.50032	-2.9599	-0.5493	-7.2772	-0.0592	0.0182	-0.0073	-0.0462	0.0165	0.9585
26.7884	18.8931	727.5271	49.0709	-242.5557	-34.6563	669.5486	0.9001	-7.5112	0.65784	-3.0042	-0.85925	-7.4074	-0.0592	0.0182	-0.0073	-0.0462	0.0165	0.9585
26.8066	22.9181	727.4226	48.8256	-242.5507	-32.7847	663.9571	1.5376	-5.5996	0.83479	-2.2658	-1.2743	-5.515	-0.0592	0.0182	-0.0073	-0.0462	0.0165	0.9585
26.8247	26.629	727.884	48.8859	-242.7117	-31.311	659.1262	2.4708	-0.45192	0.99916	-0.25981	-1.7714	-0.3509	-0.0592	0.0182	-0.0073	-0.0462	0.0165	0.9585
26.8429	29.9667	727.4132	49.159	-242.5257	-30.1697	653.7678	3.7056	9.3786	1.0975	3.5818	-2.2893	9.5454	-0.0592	0.0182	-0.0073	-0.0462	0.0165	0.9585
26.861	32.8636	724.3561	49.5405	-241.4291	-29.293	646.4818	5.1735	25.3448	1.048	9.8303	-2.7135	25.6441	-0.0592	0.0182	-0.0073	-0.0462	0.0165	0.9585
26.8791	35.2545	717.1034	49.8913	-238.8813	-28.589	635.9224	6.6565	48.559	0.73966	18.9265	-2.8455	49.0807	-0.0592	0.0182	-0.0073	-0.0462	0.0165	0.9585
26.8973	37.0719	704.2888	50.033	-234.4333	-27.9396	620.9732	7.6137	79.3289	0.062994	30.9986	-2.3673	80.1826	-0.0592	0.0182	-0.0073	-0.0462	0.0165	0.9585
26.9154	38.247	684.9568	49.7752	-227.7807	-27.2216	600.8865	7.2689	116.6371	-1.0682	45.6541	-0.90053	117.9368	-0.0592	0.0182	-0.0073	-0.0462	0.0165	0.9585
26.9336	38.7228	658.7432	48.9472	-218.8193	-26.3237	575.4152	5.3516	158.0746	-2.7618	61.9401	1.7579	159.8922	-0.0592	0.0182	-0.0073	-0.0462	0.0165	0.9585
26.9517	38.5015	626.0754	47.4466	-207.7117	-25.1698	544.9593	2.164	200.6027	-5.1887	78.6416	5.6422	202.9027	-0.0592	0.0182	-0.0073	-0.0462	0.0165	0.9585
26.9699	37.6985	588.2016	45.2867	-194.8915	-23.732	510.569	-1.7605	242.3479	-8.2852	95.0047	10.4675	244.9917	-0.0592	0.0182	-0.0073	-0.0462	0.0165	0.9585
26.988	36.5136	546.8511	42.5913	-180.9468	-22.0334	473.6607	-5.8868	282.7898	-11.8611	110.8205	15.8314	285.5799	-0.0592	0.0182	-0.0073	-0.0462	0.0165	0.9585
27.0061	35.1077	503.723	39.5256	-166.452	-20.1349	435.6137	-9.7452	321.7375	-15.6466	126.024	21.2829	324.4301	-0.0592	0.0182	-0.0073	-0.0462	0.0165	0.9585
27.0243	33.5432	460.1915	36.2316	-151.8699	-18.1108	397.5353	-12.971	358.8699	-19.3532	140.5053	26.3987	361.1855	-0.0592	0.0182	-0.0073	-0.0462	0.0165	0.9585
27.0424	31.8159	417.2344	32.8244	-137.5234	-16.0375	360.2034	-15.3471	393.7842	-22.7672	154.1196	30.8849	395.4296	-0.0592	0.0182	-0.0073	-0.0462	0.0165	0.9585
27.0606	29.8712	375.4215	29.4069	-123.5906	-14.001	324.0551	-16.8226	426.1618	-25.8203	166.747	34.6492	426.8505	-0.0592	0.0182	-0.0073	-0.0462	0.0165	0.9585
27.0787	27.6225	334.9401	26.0729	-110.1172	-12.1	289.2077	-17.5109	456.0059	-28.5701	178.3861	37.7847	455.4635	-0.0592	0.0182	-0.0073	-0.0462	0.0165	0.9585
27.0969	24.9694	295.6585	22.8975	-97.0449	-10.435	255.5062	-17.6345	483.8785	-31.1185	189.2479	40.4693	481.8404	-0.0592	0.0182	-0.0073	-0.0462	0.0165	0.9585
27.115	21.8139	257.2844	19.9311	-84.2705	-9.093	222.6582	-17.4327	510.8366	-33.585	199.7324	42.9037	507.0523	-0.0592	0.0182	-0.0073	-0.0462	0.0165	0.9585
27.1331	18.1275	219.6754	17.2086	-71.7508	-8.127	190.4963	-17.1235	538.0696	-36.0971	210.2849	45.2909	532.3039	-0.0592	0.0182	-0.0073	-0.0462	0.0165	0.9585
27.1513	14.014	183.1356	14.7651	-59.598	-7.5387	159.2305	-16.8981	566.4727	-38.7543	221.235	47.7999	558.5103	-0.0592	0.0182	-0.0073	-0.0462	0.0165	0.9585
27.1694	9.7198	148.4463	12.6343	-48.085	-7.2709	129.4805	-16.9226	596.3341	-41.5832	232.6815	50.5239	586.0007	-0.0592	0.0182	-0.0073	-0.0462	0.0165	0.9585
27.1876	5.5624	116.5777	10.815	-37.5459	-7.2088	102.0514	-17.3186	627.246	-44.5104	244.4647	53.445	614.4325	-0.0592	0.0182	-0.0073	-0.0462	0.0165	0.9585
27.2057	1.8359	88.3381	9.2518	-28.2565	-7.2018	77.6355	-18.1297	658.2669	-47.3774	256.2325	56.4347	642.9358	-0.0592	0.0182	-0.0073	-0.0462	0.0165	0.9585
27.2239	-1.2329	64.2164	7.8635	-20.377	-7.1025	56.6745	-19.3073	688.2016	-49.9842	267.544	59.287	670.37	-0.0592	0.0182	-0.0073	-0.0462	0.0165	0.9585
27.242	-3.4803	44.3594	6.5725	-13.9472	-6.7912	39.341	-20.7039	715.8397	-52.1542	277.9571	61.7739	695.546	-0.0592	0.0182	-0.0073	-0.0462	0.0165	0.9585
27.2601	-4.7998	28.6288	5.3195	-8.9056	-6.1869	25.5609	-22.1089	740.1851	-53.7758	287.1082	63.7041	717.4478	-0.0592	0.0182	-0.0073	-0.0462	0.0165	0.9585
27.2783	-5.1598	16.6856	4.0715	-5.1201	-5.2577	15.0654	-23.3156	760.6778	-54.8052	294.7937	64.9586	735.4651	-0.0592	0.0182	-0.0073	-0.0462	0.0165	0.9585
27.2964	-4.6774	8.0958	2.853	-2.4282	-4.0687	7.4869	-24.1586	777.2986	-55.2662	301.0099	65.4923	749.5129	-0.0592	0.0182	-0.0073	-0.0462	0.0165	0.9585
27.3146	-3.7127	2.4278	1.7734	-0.67254	-2.8342	2.4587	-24.5227	790.5287	-55.2398	305.9391	65.3338	760.0023	-0.0592	0.0182	-0.0073	-0.0462	0.0165	0.9585
27.3327	-2.621	-0.86606	0.92692	0.33187	-1.7534	-0.48305	-24.3389	801.191	-54.8448	309.8915	64.5656	767.6832	-0.0592	0.0182	-0.0073	-0.0462	0.0165	0.9585
27.3509	-1.6151	-2.4077	0.32682	0.78691	-0.90688	-1.8803	-23.5687	810.1604	-54.2123	313.1939	63.2985	773.3774	-0.0592	0.0182	-0.0073	-0.0462	0.0165	0.9585
27.369	-0.79768	-2.7762	-0.055842	0.87723	-0.3029	-2.2429	-22.2114	817.9878	-53.4702	316.0455	61.6574	777.6305	-0.0592	0.0182	-0.0073	-0.0462	0.0165	0.9585
27.3871	-0.20087	-2.449	-0.2635	0.75347	0.084141	-1.9886	-20.3253	824.6758	-52.7218	318.4333	59.7646	780.5037	-0.0592	0.0182	-0.0073	-0.0462	0.0165	0.9585
27.4053	0.18801	-1.7903	-0.34297	0.52975	0.29504	-1.4312	-18.0347	829.7245	-52.0186	320.1526	57.7167	781.6287	-0.0592	0.0182	-0.0073	-0.0462	0.0165	0.9585
27.4234	0.40585	-1.0616	-0.3394	0.28842	0.37484	-0.79866	-15.5023	832.379	-51.3573	320.9037	55.5744	780.4287	-0.0592	0.0182	-0.0073	-0.0462	0.0165	0.9585
27.4416	0.49577	-0.43527	-0.28871	0.084949	0.36454	-0.25468	-12.8879	831.9316	-50.697	320.4095	53.3632	776.3753	-0.0592	0.0182	-0.0073	-0.0462	0.0165	0.9585
27.4597	0.49419	-0.02207	-0.2179	-0.045315	0.30097	0.094171	-10.3184	827.9742	-49.9898	318.5126	51.0937	769.2034	-0.0592	0.0182	-0.0073	-0.0462	0.0165	0.9585
27.4779	0.43202	0.10857	-0.14514	-0.079736	0.21303	0.18302	-7.88	820.5158	-49.2035	315.2211	48.7799	759.0032	-0.0592	0.0182	-0.0073	-0.0462	0.0165	0.9585
27.496	0.33568	-0.086923	-0.081808	-0.0033938	0.12232	-0.034232	-5.5982	810.0021	-48.3356	310.7153	46.4431	746.2215	-0.0592	0.0182	-0.0073	-0.0462	0.0165	0.9585
27.5141	0.22887	-0.63348	-0.038189	0.19324	0.048438	-0.59117	-3.443	797.2571	-47.4182	305.3244	44.1185	731.6099	-0.0592	0.0182	-0.0073	-0.0462	0.0165	0.9585
27.5323	0.13744	-1.5309	-0.02656	0.51007	0.012996	-1.4939	-1.3703	783.3194	-46.5139	299.4631	41.8626	716.087	-0.0592	0.0182	-0.0073	-0.0462	0.0165	0.9585
27.5504	0.097813	-2.7308	-0.059772	0.92902	0.04134	-2.7025	0.66484	769.2725	-45.6984	293.5635	39.7448	700.5847	-0.0592	0.0182	-0.0073	-0.0462	0.0165	0.9585
27.5686	0.15949	-4.1037	-0.15303	1.4036	0.16493	-4.0942	2.7182	756.1107	-45.0398	288.0231	37.8237	685.9354	-0.0592	0.0182	-0.0073	-0.0462	0.0165	0.9585
27.5867	0.38461	-5.3974	-0.32462	1.8437	0.42067	-5.4156	4.8506	744.6374	-44.584	283.1665	36.1313	672.7935	-0.0592	0.0182	-0.0073	-0.0462	0.0165	0.9585
27.6049	0.84551	-6.1846	-0.59359	2.0988	0.85113	-6.24	7.1092	735.3576	-44.3493	279.2005	34.6703	661.5553	-0.0592	0.0182	-0.0073	-0.0462	0.0165	0.9585
27.623	1.615	-5.8166	-0.97097	1.9441	1.4914	-5.9227	9.5059	728.3783	-44.3339	276.1756	33.4286	652.2892	-0.0592	0.0182	-0.0073	-0.0462	0.0165	0.9585
27.6411	2.742	-3.4002	-1.4538	1.0725	2.3555	-3.5682	11.9976	723.3898	-44.5154	273.9764	32.3872	644.7292	-0.0592	0.0182	-0.0073	-0.0462	0.0165	0.9585
27.6593	4.2289	2.1851	-2.0146	-0.89972	3.4148	1.952	14.4896	719.7177	-44.862	272.341	31.5426	638.3172	-0.0592	0.0182	-0.0073	-0.0462	0.0165	0.9585
27.6774	5.9933	12.19	-2.5811	-4.3985	4.5676	11.9018	16.8397	716.399	-45.3348	270.8935	30.9037	632.2664	-0.0592	0.0182	-0.0073	-0.0462	0.0165	0.9585
27.6956	7.8103	27.7859	-3.0143	-9.8173	5.5941	27.4771	18.857	712.2645	-45.8749	269.1771	30.4788	625.6385	-0.0592	0.0182	-0.0073	-0.0462	0.0165	0.9585
27.7137	9.2434	49.6885	-3.0911	-17.3848	6.1171	49.4335	20.3229	706.024	-46.3857	266.6884	30.2597	617.4089	-0.0592	0.0182	-0.0073	-0.0462	0.0165	0.9585
27.7319	9.6504	77.6796	-2.5205	-27.0007	5.6201	77.5973	21.0521	696.4137	-46.7499	262.9386	30.2131	606.5729	-0.0592	0.0182	-0.0073	-0.0462	0.0165	0.9585
27.75	8.5408	110.243	-1.0039	-38.1104	3.6269	110.4803	20.9351	682.4722	-46.8527	257.5572	30.2808	592.3648	-0.0592	0.0182	-0.0073	-0.0462	0.0165	0.9585
27.7681	6.098	144.3944	1.6235	-49.6575	0.032416	145.0781	19.9619	663.8258	-46.5981	250.4012	30.3886	574.4942	-0.0592	0.0182	-0.0073	-0.0462	0.0165	0.9585
27.7863	2.9808	176.519	5.1288	-60.3983	-4.6905	177.6847	18.2607	640.9079	-45.9441	241.6373	30.4587	553.3163	-0.0592	0.0182	-0.0073	-0.0462	0.0165	0.9585
27.8044	-0.33213	204.4248	8.9572	-69.6025	-9.7984	206.0494	16.1196	614.9671	-44.9384	231.7399	30.4265	529.8215	-0.0592	0.0182	-0.0073	-0.0462	0.0165	0.9585
27.8226	-3.7428	228.3623	12.6934	-77.3709	-14.8258	230.4534	13.9261	587.6435	-43.6985	221.3307	30.2423	505.2946	-0.0592	0.0182	-0.0073	-0.0462	0.0165	0.9585
27.8407	-7.2956	250.0451	16.1052	-84.297	-19.5448	252.644	12.0376	560.3421	-42.3233	210.9447	29.8485	480.8219	-0.0592	0.0182	-0.0073	-0.0462	0.0165	0.9585
27.8589	-10.9819	271.3073	19.1032	-91.0102	-23.8556	274.434	10.6703	533.8547	-40.8268	200.8887	29.1722	457.0114	-0.0592	0.0182	-0.0073	-0.0462	0.0165	0.9585
27.877	-14.7014	293.4583	21.7106	-97.9565	-27.7443	297.0679	9.8729	508.3182	-39.1869	191.2218	28.1745	433.9628	-0.0592	0.0182	-0.0073	-0.0462	0.0165	0.9585
